<mxfile host="Electron" agent="Mozilla/5.0 (Windows NT 10.0; Win64; x64) AppleWebKit/537.36 (KHTML, like Gecko) draw.io/25.0.2 Chrome/128.0.6613.186 Electron/32.2.5 Safari/537.36" version="25.0.2">
  <diagram name="Page-1" id="QuI7OsgsWOaPgACehLHW">
    <mxGraphModel dx="911" dy="1260" grid="1" gridSize="10" guides="1" tooltips="1" connect="1" arrows="1" fold="1" page="1" pageScale="1" pageWidth="1169" pageHeight="827" math="0" shadow="0">
      <root>
        <mxCell id="0" />
        <mxCell id="1" parent="0" />
        <mxCell id="p5RgksZfc0YiBU6tTaU--1" value="" style="ellipse;whiteSpace=wrap;html=1;aspect=fixed;fillColor=#000000;fontColor=#ffffff;strokeColor=#ffffff;" parent="1" vertex="1">
          <mxGeometry x="169" y="347" width="34" height="34" as="geometry" />
        </mxCell>
        <mxCell id="p5RgksZfc0YiBU6tTaU--2" value="&lt;font style=&quot;font-size: 14px;&quot;&gt;Initial State&lt;/font&gt;" style="text;html=1;align=center;verticalAlign=middle;whiteSpace=wrap;rounded=0;" parent="1" vertex="1">
          <mxGeometry x="126" y="382" width="120" height="30" as="geometry" />
        </mxCell>
        <mxCell id="p5RgksZfc0YiBU6tTaU--5" value="" style="endArrow=open;endFill=1;endSize=12;html=1;rounded=0;exitX=0.5;exitY=0;exitDx=0;exitDy=0;" parent="1" source="p5RgksZfc0YiBU6tTaU--1" edge="1">
          <mxGeometry width="160" relative="1" as="geometry">
            <mxPoint x="203" y="310" as="sourcePoint" />
            <mxPoint x="186" y="250" as="targetPoint" />
          </mxGeometry>
        </mxCell>
        <mxCell id="p5RgksZfc0YiBU6tTaU--8" value="&amp;nbsp;News Feed Page" style="rounded=1;whiteSpace=wrap;html=1;" parent="1" vertex="1">
          <mxGeometry x="126" y="190" width="158" height="60" as="geometry" />
        </mxCell>
        <mxCell id="p5RgksZfc0YiBU6tTaU--9" value="" style="ellipse;whiteSpace=wrap;html=1;aspect=fixed;fillColor=#000000;fontColor=#ffffff;strokeColor=#ffffff;" parent="1" vertex="1">
          <mxGeometry x="967" y="347" width="34" height="34" as="geometry" />
        </mxCell>
        <mxCell id="p5RgksZfc0YiBU6tTaU--11" value="&lt;b&gt;&lt;font style=&quot;font-size: 14px;&quot;&gt;online status&lt;/font&gt;&lt;/b&gt;" style="text;html=1;align=center;verticalAlign=middle;whiteSpace=wrap;rounded=0;" parent="1" vertex="1">
          <mxGeometry x="126" y="402" width="120" height="30" as="geometry" />
        </mxCell>
        <mxCell id="p5RgksZfc0YiBU6tTaU--13" value="&lt;b&gt;&lt;font style=&quot;font-size: 14px;&quot;&gt;offline status&lt;/font&gt;&lt;/b&gt;" style="text;html=1;align=center;verticalAlign=middle;whiteSpace=wrap;rounded=0;" parent="1" vertex="1">
          <mxGeometry x="924" y="402" width="120" height="30" as="geometry" />
        </mxCell>
        <mxCell id="p5RgksZfc0YiBU6tTaU--14" value="&lt;span style=&quot;background-color: rgb(255, 255, 255);&quot;&gt;Logout&lt;/span&gt;" style="rounded=1;whiteSpace=wrap;html=1;" parent="1" vertex="1">
          <mxGeometry x="924" y="190" width="120" height="60" as="geometry" />
        </mxCell>
        <mxCell id="p5RgksZfc0YiBU6tTaU--16" value="" style="endArrow=open;endFill=1;endSize=12;html=1;rounded=0;exitX=0.5;exitY=1;exitDx=0;exitDy=0;entryX=0.5;entryY=0;entryDx=0;entryDy=0;" parent="1" source="p5RgksZfc0YiBU6tTaU--14" target="p5RgksZfc0YiBU6tTaU--9" edge="1">
          <mxGeometry width="160" relative="1" as="geometry">
            <mxPoint x="476" y="357" as="sourcePoint" />
            <mxPoint x="476" y="260" as="targetPoint" />
          </mxGeometry>
        </mxCell>
        <mxCell id="p5RgksZfc0YiBU6tTaU--18" value="" style="endArrow=open;endFill=1;endSize=12;html=1;rounded=0;entryX=0;entryY=0.5;entryDx=0;entryDy=0;" parent="1" target="p5RgksZfc0YiBU6tTaU--19" edge="1">
          <mxGeometry width="160" relative="1" as="geometry">
            <mxPoint x="284" y="220" as="sourcePoint" />
            <mxPoint x="384" y="220" as="targetPoint" />
          </mxGeometry>
        </mxCell>
        <mxCell id="p5RgksZfc0YiBU6tTaU--20" value="Friend Management" style="edgeLabel;html=1;align=center;verticalAlign=middle;resizable=0;points=[];rotation=-25;" parent="p5RgksZfc0YiBU6tTaU--18" vertex="1" connectable="0">
          <mxGeometry x="-0.5513" y="1" relative="1" as="geometry">
            <mxPoint x="43" y="-37" as="offset" />
          </mxGeometry>
        </mxCell>
        <mxCell id="p5RgksZfc0YiBU6tTaU--19" value="&lt;span style=&quot;font-size: 11px; text-wrap: nowrap; background-color: rgb(255, 255, 255);&quot;&gt;Friend Management Page&lt;/span&gt;" style="rounded=1;whiteSpace=wrap;html=1;" parent="1" vertex="1">
          <mxGeometry x="494" y="90" width="158" height="60" as="geometry" />
        </mxCell>
        <mxCell id="p5RgksZfc0YiBU6tTaU--21" value="" style="endArrow=open;endFill=1;endSize=12;html=1;rounded=0;exitX=0.063;exitY=0;exitDx=0;exitDy=0;exitPerimeter=0;" parent="1" source="p5RgksZfc0YiBU6tTaU--19" edge="1">
          <mxGeometry width="160" relative="1" as="geometry">
            <mxPoint x="464" y="120" as="sourcePoint" />
            <mxPoint x="624" y="90" as="targetPoint" />
            <Array as="points">
              <mxPoint x="504" y="60" />
              <mxPoint x="624" y="60" />
            </Array>
          </mxGeometry>
        </mxCell>
        <mxCell id="p5RgksZfc0YiBU6tTaU--22" value="add friend" style="edgeLabel;html=1;align=center;verticalAlign=middle;resizable=0;points=[];" parent="p5RgksZfc0YiBU6tTaU--21" vertex="1" connectable="0">
          <mxGeometry x="0.1434" y="1" relative="1" as="geometry">
            <mxPoint as="offset" />
          </mxGeometry>
        </mxCell>
        <mxCell id="p5RgksZfc0YiBU6tTaU--23" value="" style="endArrow=open;endFill=1;endSize=12;html=1;rounded=0;exitX=0.124;exitY=1.034;exitDx=0;exitDy=0;exitPerimeter=0;entryX=0.5;entryY=1;entryDx=0;entryDy=0;" parent="1" source="p5RgksZfc0YiBU6tTaU--19" target="p5RgksZfc0YiBU6tTaU--19" edge="1">
          <mxGeometry width="160" relative="1" as="geometry">
            <mxPoint x="572.66" y="281" as="sourcePoint" />
            <mxPoint x="614" y="210" as="targetPoint" />
            <Array as="points">
              <mxPoint x="514" y="190" />
              <mxPoint x="574" y="190" />
            </Array>
          </mxGeometry>
        </mxCell>
        <mxCell id="p5RgksZfc0YiBU6tTaU--24" value="Delete Friend" style="edgeLabel;html=1;align=center;verticalAlign=middle;resizable=0;points=[];" parent="p5RgksZfc0YiBU6tTaU--23" vertex="1" connectable="0">
          <mxGeometry x="0.0631" y="-1" relative="1" as="geometry">
            <mxPoint y="9" as="offset" />
          </mxGeometry>
        </mxCell>
        <mxCell id="p5RgksZfc0YiBU6tTaU--25" value="" style="endArrow=open;endFill=1;endSize=12;html=1;rounded=0;exitX=0;exitY=1;exitDx=0;exitDy=0;entryX=0.675;entryY=1.007;entryDx=0;entryDy=0;entryPerimeter=0;" parent="1" source="p5RgksZfc0YiBU6tTaU--19" target="p5RgksZfc0YiBU6tTaU--19" edge="1">
          <mxGeometry width="160" relative="1" as="geometry">
            <mxPoint x="524" y="202" as="sourcePoint" />
            <mxPoint x="583" y="200" as="targetPoint" />
            <Array as="points">
              <mxPoint x="494" y="240" />
              <mxPoint x="601" y="240" />
            </Array>
          </mxGeometry>
        </mxCell>
        <mxCell id="p5RgksZfc0YiBU6tTaU--26" value="Block Friend" style="edgeLabel;html=1;align=center;verticalAlign=middle;resizable=0;points=[];" parent="p5RgksZfc0YiBU6tTaU--25" vertex="1" connectable="0">
          <mxGeometry x="0.0631" y="-1" relative="1" as="geometry">
            <mxPoint y="9" as="offset" />
          </mxGeometry>
        </mxCell>
        <mxCell id="p5RgksZfc0YiBU6tTaU--27" value="&lt;span style=&quot;font-size: 11px; text-wrap: nowrap; background-color: rgb(255, 255, 255);&quot;&gt;Content Management Page&lt;/span&gt;" style="rounded=1;whiteSpace=wrap;html=1;" parent="1" vertex="1">
          <mxGeometry x="494" y="300" width="158" height="60" as="geometry" />
        </mxCell>
        <mxCell id="p5RgksZfc0YiBU6tTaU--30" value="" style="endArrow=open;endFill=1;endSize=12;html=1;rounded=0;exitX=0.124;exitY=1.034;exitDx=0;exitDy=0;exitPerimeter=0;entryX=0.5;entryY=1;entryDx=0;entryDy=0;" parent="1" source="p5RgksZfc0YiBU6tTaU--27" target="p5RgksZfc0YiBU6tTaU--27" edge="1">
          <mxGeometry width="160" relative="1" as="geometry">
            <mxPoint x="572.66" y="491" as="sourcePoint" />
            <mxPoint x="614" y="420" as="targetPoint" />
            <Array as="points">
              <mxPoint x="514" y="400" />
              <mxPoint x="574" y="400" />
            </Array>
          </mxGeometry>
        </mxCell>
        <mxCell id="p5RgksZfc0YiBU6tTaU--31" value="add Post" style="edgeLabel;html=1;align=center;verticalAlign=middle;resizable=0;points=[];" parent="p5RgksZfc0YiBU6tTaU--30" vertex="1" connectable="0">
          <mxGeometry x="0.0631" y="-1" relative="1" as="geometry">
            <mxPoint y="9" as="offset" />
          </mxGeometry>
        </mxCell>
        <mxCell id="p5RgksZfc0YiBU6tTaU--32" value="" style="endArrow=open;endFill=1;endSize=12;html=1;rounded=0;exitX=0;exitY=1;exitDx=0;exitDy=0;entryX=0.675;entryY=1.007;entryDx=0;entryDy=0;entryPerimeter=0;" parent="1" source="p5RgksZfc0YiBU6tTaU--27" target="p5RgksZfc0YiBU6tTaU--27" edge="1">
          <mxGeometry width="160" relative="1" as="geometry">
            <mxPoint x="524" y="412" as="sourcePoint" />
            <mxPoint x="583" y="410" as="targetPoint" />
            <Array as="points">
              <mxPoint x="494" y="450" />
              <mxPoint x="601" y="450" />
            </Array>
          </mxGeometry>
        </mxCell>
        <mxCell id="p5RgksZfc0YiBU6tTaU--33" value="add sotory&amp;nbsp;" style="edgeLabel;html=1;align=center;verticalAlign=middle;resizable=0;points=[];" parent="p5RgksZfc0YiBU6tTaU--32" vertex="1" connectable="0">
          <mxGeometry x="0.0631" y="-1" relative="1" as="geometry">
            <mxPoint y="9" as="offset" />
          </mxGeometry>
        </mxCell>
        <mxCell id="p5RgksZfc0YiBU6tTaU--34" value="" style="endArrow=open;endFill=1;endSize=12;html=1;rounded=0;entryX=0;entryY=0.5;entryDx=0;entryDy=0;exitX=1.01;exitY=0.64;exitDx=0;exitDy=0;exitPerimeter=0;" parent="1" source="p5RgksZfc0YiBU6tTaU--8" target="p5RgksZfc0YiBU6tTaU--27" edge="1">
          <mxGeometry width="160" relative="1" as="geometry">
            <mxPoint x="294" y="230" as="sourcePoint" />
            <mxPoint x="504" y="130" as="targetPoint" />
          </mxGeometry>
        </mxCell>
        <mxCell id="p5RgksZfc0YiBU6tTaU--35" value="Content Management" style="edgeLabel;html=1;align=center;verticalAlign=middle;resizable=0;points=[];rotation=35;" parent="p5RgksZfc0YiBU6tTaU--34" vertex="1" connectable="0">
          <mxGeometry x="-0.5513" y="1" relative="1" as="geometry">
            <mxPoint x="54" y="23" as="offset" />
          </mxGeometry>
        </mxCell>
        <mxCell id="p5RgksZfc0YiBU6tTaU--36" value="&lt;span style=&quot;font-size: 11px; text-wrap: nowrap; background-color: rgb(255, 255, 255);&quot;&gt;Profile Page&lt;/span&gt;" style="rounded=1;whiteSpace=wrap;html=1;" parent="1" vertex="1">
          <mxGeometry x="504" y="500" width="158" height="60" as="geometry" />
        </mxCell>
        <mxCell id="p5RgksZfc0YiBU6tTaU--37" value="" style="endArrow=open;endFill=1;endSize=12;html=1;rounded=0;exitX=0.124;exitY=1.034;exitDx=0;exitDy=0;exitPerimeter=0;entryX=0.5;entryY=1;entryDx=0;entryDy=0;" parent="1" source="p5RgksZfc0YiBU6tTaU--36" target="p5RgksZfc0YiBU6tTaU--36" edge="1">
          <mxGeometry width="160" relative="1" as="geometry">
            <mxPoint x="582.66" y="691" as="sourcePoint" />
            <mxPoint x="624" y="620" as="targetPoint" />
            <Array as="points">
              <mxPoint x="524" y="600" />
              <mxPoint x="584" y="600" />
            </Array>
          </mxGeometry>
        </mxCell>
        <mxCell id="p5RgksZfc0YiBU6tTaU--38" value="update Bio&amp;nbsp;" style="edgeLabel;html=1;align=center;verticalAlign=middle;resizable=0;points=[];" parent="p5RgksZfc0YiBU6tTaU--37" vertex="1" connectable="0">
          <mxGeometry x="0.0631" y="-1" relative="1" as="geometry">
            <mxPoint y="9" as="offset" />
          </mxGeometry>
        </mxCell>
        <mxCell id="p5RgksZfc0YiBU6tTaU--39" value="" style="endArrow=open;endFill=1;endSize=12;html=1;rounded=0;exitX=0;exitY=1;exitDx=0;exitDy=0;entryX=0.675;entryY=1.007;entryDx=0;entryDy=0;entryPerimeter=0;" parent="1" source="p5RgksZfc0YiBU6tTaU--36" target="p5RgksZfc0YiBU6tTaU--36" edge="1">
          <mxGeometry width="160" relative="1" as="geometry">
            <mxPoint x="534" y="612" as="sourcePoint" />
            <mxPoint x="593" y="610" as="targetPoint" />
            <Array as="points">
              <mxPoint x="504" y="650" />
              <mxPoint x="611" y="650" />
            </Array>
          </mxGeometry>
        </mxCell>
        <mxCell id="p5RgksZfc0YiBU6tTaU--40" value="update profile img" style="edgeLabel;html=1;align=center;verticalAlign=middle;resizable=0;points=[];" parent="p5RgksZfc0YiBU6tTaU--39" vertex="1" connectable="0">
          <mxGeometry x="0.0631" y="-1" relative="1" as="geometry">
            <mxPoint y="9" as="offset" />
          </mxGeometry>
        </mxCell>
        <mxCell id="p5RgksZfc0YiBU6tTaU--41" value="" style="endArrow=open;endFill=1;endSize=12;html=1;rounded=0;exitX=0;exitY=0.5;exitDx=0;exitDy=0;entryX=0.823;entryY=1;entryDx=0;entryDy=0;entryPerimeter=0;" parent="1" source="p5RgksZfc0YiBU6tTaU--36" target="p5RgksZfc0YiBU6tTaU--36" edge="1">
          <mxGeometry width="160" relative="1" as="geometry">
            <mxPoint x="504" y="600" as="sourcePoint" />
            <mxPoint x="611" y="600" as="targetPoint" />
            <Array as="points">
              <mxPoint x="464" y="530" />
              <mxPoint x="464" y="690" />
              <mxPoint x="634" y="690" />
            </Array>
          </mxGeometry>
        </mxCell>
        <mxCell id="p5RgksZfc0YiBU6tTaU--42" value="update profile img" style="edgeLabel;html=1;align=center;verticalAlign=middle;resizable=0;points=[];" parent="p5RgksZfc0YiBU6tTaU--41" vertex="1" connectable="0">
          <mxGeometry x="0.0631" y="-1" relative="1" as="geometry">
            <mxPoint y="9" as="offset" />
          </mxGeometry>
        </mxCell>
        <mxCell id="p5RgksZfc0YiBU6tTaU--43" value="" style="endArrow=open;endFill=1;endSize=12;html=1;rounded=0;entryX=0;entryY=0;entryDx=0;entryDy=0;exitX=0.75;exitY=1;exitDx=0;exitDy=0;" parent="1" source="p5RgksZfc0YiBU6tTaU--8" target="p5RgksZfc0YiBU6tTaU--36" edge="1">
          <mxGeometry width="160" relative="1" as="geometry">
            <mxPoint x="264" y="290" as="sourcePoint" />
            <mxPoint x="472" y="392" as="targetPoint" />
          </mxGeometry>
        </mxCell>
        <mxCell id="p5RgksZfc0YiBU6tTaU--44" value="Profile Managment" style="edgeLabel;html=1;align=center;verticalAlign=middle;resizable=0;points=[];rotation=35;" parent="p5RgksZfc0YiBU6tTaU--43" vertex="1" connectable="0">
          <mxGeometry x="-0.5513" y="1" relative="1" as="geometry">
            <mxPoint x="40" y="34" as="offset" />
          </mxGeometry>
        </mxCell>
        <mxCell id="p5RgksZfc0YiBU6tTaU--45" value="" style="endArrow=open;endFill=1;endSize=12;html=1;rounded=0;exitX=1;exitY=0.25;exitDx=0;exitDy=0;entryX=0.5;entryY=0;entryDx=0;entryDy=0;" parent="1" source="p5RgksZfc0YiBU6tTaU--19" target="p5RgksZfc0YiBU6tTaU--14" edge="1">
          <mxGeometry width="160" relative="1" as="geometry">
            <mxPoint x="794" y="207" as="sourcePoint" />
            <mxPoint x="794" y="110" as="targetPoint" />
            <Array as="points">
              <mxPoint x="984" y="110" />
            </Array>
          </mxGeometry>
        </mxCell>
        <mxCell id="p5RgksZfc0YiBU6tTaU--46" value="" style="endArrow=open;endFill=1;endSize=12;html=1;rounded=0;exitX=1;exitY=0.5;exitDx=0;exitDy=0;entryX=0.25;entryY=0;entryDx=0;entryDy=0;" parent="1" source="p5RgksZfc0YiBU6tTaU--27" target="p5RgksZfc0YiBU6tTaU--14" edge="1">
          <mxGeometry width="160" relative="1" as="geometry">
            <mxPoint x="804" y="327" as="sourcePoint" />
            <mxPoint x="804" y="230" as="targetPoint" />
            <Array as="points">
              <mxPoint x="814" y="330" />
              <mxPoint x="814" y="130" />
              <mxPoint x="954" y="130" />
            </Array>
          </mxGeometry>
        </mxCell>
        <mxCell id="p5RgksZfc0YiBU6tTaU--47" value="" style="endArrow=open;endFill=1;endSize=12;html=1;rounded=0;exitX=1;exitY=0.5;exitDx=0;exitDy=0;entryX=0;entryY=0.5;entryDx=0;entryDy=0;" parent="1" source="p5RgksZfc0YiBU6tTaU--36" target="p5RgksZfc0YiBU6tTaU--14" edge="1">
          <mxGeometry width="160" relative="1" as="geometry">
            <mxPoint x="784" y="560" as="sourcePoint" />
            <mxPoint x="784" y="463" as="targetPoint" />
            <Array as="points">
              <mxPoint x="864" y="530" />
              <mxPoint x="864" y="220" />
            </Array>
          </mxGeometry>
        </mxCell>
        <mxCell id="p5RgksZfc0YiBU6tTaU--48" value="" style="endArrow=open;endFill=1;endSize=12;html=1;rounded=0;exitX=1;exitY=0.5;exitDx=0;exitDy=0;entryX=1;entryY=0.75;entryDx=0;entryDy=0;" parent="1" source="p5RgksZfc0YiBU6tTaU--36" target="p5RgksZfc0YiBU6tTaU--27" edge="1">
          <mxGeometry width="160" relative="1" as="geometry">
            <mxPoint x="724" y="479" as="sourcePoint" />
            <mxPoint x="724" y="382" as="targetPoint" />
            <Array as="points">
              <mxPoint x="694" y="500" />
              <mxPoint x="694" y="345" />
            </Array>
          </mxGeometry>
        </mxCell>
        <mxCell id="p5RgksZfc0YiBU6tTaU--49" value="Adding Content" style="edgeLabel;html=1;align=center;verticalAlign=middle;resizable=0;points=[];" parent="p5RgksZfc0YiBU6tTaU--48" vertex="1" connectable="0">
          <mxGeometry x="-0.0172" y="-1" relative="1" as="geometry">
            <mxPoint as="offset" />
          </mxGeometry>
        </mxCell>
        <mxCell id="p5RgksZfc0YiBU6tTaU--50" value="" style="endArrow=open;endFill=1;endSize=12;html=1;rounded=0;exitX=0;exitY=0.25;exitDx=0;exitDy=0;entryX=0.95;entryY=1.033;entryDx=0;entryDy=0;entryPerimeter=0;" parent="1" source="p5RgksZfc0YiBU6tTaU--36" target="p5RgksZfc0YiBU6tTaU--36" edge="1">
          <mxGeometry width="160" relative="1" as="geometry">
            <mxPoint x="514" y="540" as="sourcePoint" />
            <mxPoint x="644" y="570" as="targetPoint" />
            <Array as="points">
              <mxPoint x="440" y="515" />
              <mxPoint x="440" y="740" />
              <mxPoint x="654" y="740" />
            </Array>
          </mxGeometry>
        </mxCell>
        <mxCell id="p5RgksZfc0YiBU6tTaU--51" value="update User Password" style="edgeLabel;html=1;align=center;verticalAlign=middle;resizable=0;points=[];" parent="p5RgksZfc0YiBU6tTaU--50" vertex="1" connectable="0">
          <mxGeometry x="0.0631" y="-1" relative="1" as="geometry">
            <mxPoint y="9" as="offset" />
          </mxGeometry>
        </mxCell>
        <mxCell id="sruIdUaYwwlshyvs9AWF-1" value="Search Engine" style="rounded=1;whiteSpace=wrap;html=1;" parent="1" vertex="1">
          <mxGeometry x="490" y="-50" width="140" height="60" as="geometry" />
        </mxCell>
        <mxCell id="sruIdUaYwwlshyvs9AWF-4" value="" style="endArrow=classic;html=1;rounded=0;exitX=0.5;exitY=0;exitDx=0;exitDy=0;entryX=-0.067;entryY=0.617;entryDx=0;entryDy=0;entryPerimeter=0;" parent="1" edge="1">
          <mxGeometry relative="1" as="geometry">
            <mxPoint x="213.04" y="182.98" as="sourcePoint" />
            <mxPoint x="490.00000000000006" y="-20.00000000000013" as="targetPoint" />
          </mxGeometry>
        </mxCell>
        <mxCell id="sruIdUaYwwlshyvs9AWF-5" value="Search" style="edgeLabel;resizable=0;html=1;;align=center;verticalAlign=middle;" parent="sruIdUaYwwlshyvs9AWF-4" connectable="0" vertex="1">
          <mxGeometry relative="1" as="geometry" />
        </mxCell>
        <mxCell id="sruIdUaYwwlshyvs9AWF-6" value="Source" style="edgeLabel;resizable=0;html=1;;align=left;verticalAlign=bottom;" parent="sruIdUaYwwlshyvs9AWF-4" connectable="0" vertex="1">
          <mxGeometry x="-1" relative="1" as="geometry" />
        </mxCell>
        <mxCell id="sruIdUaYwwlshyvs9AWF-8" value="" style="endArrow=open;endFill=1;endSize=12;html=1;rounded=0;exitX=0.182;exitY=-0.062;exitDx=0;exitDy=0;exitPerimeter=0;entryX=0.738;entryY=-0.054;entryDx=0;entryDy=0;entryPerimeter=0;" parent="1" source="sruIdUaYwwlshyvs9AWF-1" target="sruIdUaYwwlshyvs9AWF-1" edge="1">
          <mxGeometry width="160" relative="1" as="geometry">
            <mxPoint x="494" y="-60" as="sourcePoint" />
            <mxPoint x="614" y="-60" as="targetPoint" />
            <Array as="points">
              <mxPoint x="515" y="-90" />
              <mxPoint x="593" y="-90" />
            </Array>
          </mxGeometry>
        </mxCell>
        <mxCell id="sruIdUaYwwlshyvs9AWF-9" value="add friend" style="edgeLabel;html=1;align=center;verticalAlign=middle;resizable=0;points=[];" parent="sruIdUaYwwlshyvs9AWF-8" vertex="1" connectable="0">
          <mxGeometry x="0.1434" y="1" relative="1" as="geometry">
            <mxPoint as="offset" />
          </mxGeometry>
        </mxCell>
        <mxCell id="sruIdUaYwwlshyvs9AWF-22" value="" style="endArrow=classic;html=1;rounded=0;exitX=0.102;exitY=-0.029;exitDx=0;exitDy=0;exitPerimeter=0;entryX=0.793;entryY=-0.054;entryDx=0;entryDy=0;entryPerimeter=0;" parent="1" target="sruIdUaYwwlshyvs9AWF-1" edge="1">
          <mxGeometry relative="1" as="geometry">
            <mxPoint x="504" y="-50.00000000000001" as="sourcePoint" />
            <mxPoint x="879.72" y="-108.26" as="targetPoint" />
            <Array as="points">
              <mxPoint x="504" y="-110" />
              <mxPoint x="600" y="-110" />
            </Array>
          </mxGeometry>
        </mxCell>
        <mxCell id="sruIdUaYwwlshyvs9AWF-23" value="Block User" style="edgeLabel;resizable=0;html=1;;align=center;verticalAlign=middle;" parent="sruIdUaYwwlshyvs9AWF-22" connectable="0" vertex="1">
          <mxGeometry relative="1" as="geometry" />
        </mxCell>
        <mxCell id="sruIdUaYwwlshyvs9AWF-24" value="" style="endArrow=open;endFill=1;endSize=12;html=1;rounded=0;exitX=1.026;exitY=0.414;exitDx=0;exitDy=0;exitPerimeter=0;entryX=-0.003;entryY=0.44;entryDx=0;entryDy=0;entryPerimeter=0;" parent="1" source="sruIdUaYwwlshyvs9AWF-1" target="sruIdUaYwwlshyvs9AWF-34" edge="1">
          <mxGeometry width="160" relative="1" as="geometry">
            <mxPoint x="610" y="-50" as="sourcePoint" />
            <mxPoint x="730" y="-50" as="targetPoint" />
            <Array as="points">
              <mxPoint x="670" y="-50" />
            </Array>
          </mxGeometry>
        </mxCell>
        <mxCell id="sruIdUaYwwlshyvs9AWF-25" value="View profile" style="edgeLabel;html=1;align=center;verticalAlign=middle;resizable=0;points=[];" parent="sruIdUaYwwlshyvs9AWF-24" vertex="1" connectable="0">
          <mxGeometry x="0.1434" y="1" relative="1" as="geometry">
            <mxPoint as="offset" />
          </mxGeometry>
        </mxCell>
        <mxCell id="sruIdUaYwwlshyvs9AWF-26" value="" style="endArrow=open;endFill=1;endSize=12;html=1;rounded=0;exitX=0.063;exitY=0;exitDx=0;exitDy=0;exitPerimeter=0;entryX=0.5;entryY=0;entryDx=0;entryDy=0;" parent="1" target="sruIdUaYwwlshyvs9AWF-1" edge="1">
          <mxGeometry width="160" relative="1" as="geometry">
            <mxPoint x="523" y="-50" as="sourcePoint" />
            <mxPoint x="643" y="-50" as="targetPoint" />
            <Array as="points">
              <mxPoint x="523" y="-80" />
              <mxPoint x="560" y="-80" />
            </Array>
          </mxGeometry>
        </mxCell>
        <mxCell id="sruIdUaYwwlshyvs9AWF-27" value="Remove friend" style="edgeLabel;html=1;align=center;verticalAlign=middle;resizable=0;points=[];" parent="sruIdUaYwwlshyvs9AWF-26" vertex="1" connectable="0">
          <mxGeometry x="0.1434" y="1" relative="1" as="geometry">
            <mxPoint as="offset" />
          </mxGeometry>
        </mxCell>
        <mxCell id="sruIdUaYwwlshyvs9AWF-28" value="" style="endArrow=open;endFill=1;endSize=12;html=1;rounded=0;exitX=0.318;exitY=1.013;exitDx=0;exitDy=0;exitPerimeter=0;entryX=0.614;entryY=0.996;entryDx=0;entryDy=0;entryPerimeter=0;" parent="1" source="sruIdUaYwwlshyvs9AWF-1" target="sruIdUaYwwlshyvs9AWF-1" edge="1">
          <mxGeometry width="160" relative="1" as="geometry">
            <mxPoint x="500" y="60" as="sourcePoint" />
            <mxPoint x="620" y="60" as="targetPoint" />
            <Array as="points">
              <mxPoint x="535" y="30" />
              <mxPoint x="576" y="30" />
            </Array>
          </mxGeometry>
        </mxCell>
        <mxCell id="sruIdUaYwwlshyvs9AWF-29" value="join group" style="edgeLabel;html=1;align=center;verticalAlign=middle;resizable=0;points=[];" parent="sruIdUaYwwlshyvs9AWF-28" vertex="1" connectable="0">
          <mxGeometry x="0.1434" y="1" relative="1" as="geometry">
            <mxPoint x="-2" as="offset" />
          </mxGeometry>
        </mxCell>
        <mxCell id="sruIdUaYwwlshyvs9AWF-30" value="" style="endArrow=open;endFill=1;endSize=12;html=1;rounded=0;exitX=0.25;exitY=1;exitDx=0;exitDy=0;entryX=0.75;entryY=1;entryDx=0;entryDy=0;" parent="1" source="sruIdUaYwwlshyvs9AWF-1" target="sruIdUaYwwlshyvs9AWF-1" edge="1">
          <mxGeometry width="160" relative="1" as="geometry">
            <mxPoint x="504" y="60" as="sourcePoint" />
            <mxPoint x="624" y="60" as="targetPoint" />
            <Array as="points">
              <mxPoint x="525" y="40" />
              <mxPoint x="600" y="40" />
            </Array>
          </mxGeometry>
        </mxCell>
        <mxCell id="sruIdUaYwwlshyvs9AWF-31" value="Leave group" style="edgeLabel;html=1;align=center;verticalAlign=middle;resizable=0;points=[];" parent="sruIdUaYwwlshyvs9AWF-30" vertex="1" connectable="0">
          <mxGeometry x="0.1434" y="1" relative="1" as="geometry">
            <mxPoint as="offset" />
          </mxGeometry>
        </mxCell>
        <mxCell id="sruIdUaYwwlshyvs9AWF-32" value="" style="endArrow=open;endFill=1;endSize=12;html=1;rounded=0;entryX=0;entryY=0.5;entryDx=0;entryDy=0;exitX=1.013;exitY=0.122;exitDx=0;exitDy=0;exitPerimeter=0;" parent="1" source="sruIdUaYwwlshyvs9AWF-1" target="sruIdUaYwwlshyvs9AWF-35" edge="1">
          <mxGeometry width="160" relative="1" as="geometry">
            <mxPoint x="604" y="10" as="sourcePoint" />
            <mxPoint x="620.62" y="1.4210854715202004e-14" as="targetPoint" />
            <Array as="points">
              <mxPoint x="670" y="-80" />
            </Array>
          </mxGeometry>
        </mxCell>
        <mxCell id="sruIdUaYwwlshyvs9AWF-33" value="View group" style="edgeLabel;html=1;align=center;verticalAlign=middle;resizable=0;points=[];" parent="sruIdUaYwwlshyvs9AWF-32" vertex="1" connectable="0">
          <mxGeometry x="0.1434" y="1" relative="1" as="geometry">
            <mxPoint as="offset" />
          </mxGeometry>
        </mxCell>
        <mxCell id="sruIdUaYwwlshyvs9AWF-34" value="User page" style="rounded=1;whiteSpace=wrap;html=1;" parent="1" vertex="1">
          <mxGeometry x="780" y="30" width="120" height="60" as="geometry" />
        </mxCell>
        <mxCell id="sruIdUaYwwlshyvs9AWF-35" value="Group page" style="rounded=1;whiteSpace=wrap;html=1;" parent="1" vertex="1">
          <mxGeometry x="780" y="-160" width="120" height="60" as="geometry" />
        </mxCell>
        <mxCell id="sruIdUaYwwlshyvs9AWF-36" value="Create group page" style="rounded=1;whiteSpace=wrap;html=1;" parent="1" vertex="1">
          <mxGeometry x="480" y="-230" width="120" height="60" as="geometry" />
        </mxCell>
        <mxCell id="sruIdUaYwwlshyvs9AWF-37" value="" style="endArrow=classic;html=1;rounded=0;exitX=0.33;exitY=-0.04;exitDx=0;exitDy=0;exitPerimeter=0;entryX=0.044;entryY=1.028;entryDx=0;entryDy=0;entryPerimeter=0;" parent="1" source="p5RgksZfc0YiBU6tTaU--8" target="sruIdUaYwwlshyvs9AWF-36" edge="1">
          <mxGeometry relative="1" as="geometry">
            <mxPoint x="136" y="130" as="sourcePoint" />
            <mxPoint x="236" y="130" as="targetPoint" />
          </mxGeometry>
        </mxCell>
        <mxCell id="sruIdUaYwwlshyvs9AWF-38" value="Label" style="edgeLabel;resizable=0;html=1;;align=center;verticalAlign=middle;" parent="sruIdUaYwwlshyvs9AWF-37" connectable="0" vertex="1">
          <mxGeometry relative="1" as="geometry" />
        </mxCell>
        <mxCell id="sruIdUaYwwlshyvs9AWF-39" value="create group" style="edgeLabel;html=1;align=center;verticalAlign=middle;resizable=0;points=[];" parent="sruIdUaYwwlshyvs9AWF-37" vertex="1" connectable="0">
          <mxGeometry x="-0.0016" y="-1" relative="1" as="geometry">
            <mxPoint as="offset" />
          </mxGeometry>
        </mxCell>
        <mxCell id="sruIdUaYwwlshyvs9AWF-44" value="" style="endArrow=open;endFill=1;endSize=12;html=1;rounded=0;exitX=0.368;exitY=-0.002;exitDx=0;exitDy=0;exitPerimeter=0;entryX=0.75;entryY=0;entryDx=0;entryDy=0;" parent="1" source="sruIdUaYwwlshyvs9AWF-36" target="sruIdUaYwwlshyvs9AWF-36" edge="1">
          <mxGeometry width="160" relative="1" as="geometry">
            <mxPoint x="510" y="20" as="sourcePoint" />
            <mxPoint x="580" y="-270" as="targetPoint" />
            <Array as="points">
              <mxPoint x="524" y="-280" />
              <mxPoint x="570" y="-280" />
            </Array>
          </mxGeometry>
        </mxCell>
        <mxCell id="sruIdUaYwwlshyvs9AWF-45" value="add Group photo" style="text;html=1;align=center;verticalAlign=middle;whiteSpace=wrap;rounded=0;" parent="1" vertex="1">
          <mxGeometry x="500" y="-300" width="100" height="20" as="geometry" />
        </mxCell>
        <mxCell id="sruIdUaYwwlshyvs9AWF-47" value="" style="endArrow=open;endFill=1;endSize=12;html=1;rounded=0;exitX=1.013;exitY=0.122;exitDx=0;exitDy=0;exitPerimeter=0;entryX=0.011;entryY=0.13;entryDx=0;entryDy=0;entryPerimeter=0;" parent="1" target="sruIdUaYwwlshyvs9AWF-35" edge="1">
          <mxGeometry width="160" relative="1" as="geometry">
            <mxPoint x="600" y="-203" as="sourcePoint" />
            <mxPoint x="780" y="-160" as="targetPoint" />
            <Array as="points" />
          </mxGeometry>
        </mxCell>
        <mxCell id="sruIdUaYwwlshyvs9AWF-48" value="View group" style="edgeLabel;html=1;align=center;verticalAlign=middle;resizable=0;points=[];" parent="sruIdUaYwwlshyvs9AWF-47" vertex="1" connectable="0">
          <mxGeometry x="0.1434" y="1" relative="1" as="geometry">
            <mxPoint as="offset" />
          </mxGeometry>
        </mxCell>
        <mxCell id="sruIdUaYwwlshyvs9AWF-51" value="" style="endArrow=open;endFill=1;endSize=12;html=1;rounded=0;exitX=0.168;exitY=-0.08;exitDx=0;exitDy=0;exitPerimeter=0;entryX=0.918;entryY=-0.02;entryDx=0;entryDy=0;entryPerimeter=0;" parent="1" source="sruIdUaYwwlshyvs9AWF-35" target="sruIdUaYwwlshyvs9AWF-35" edge="1">
          <mxGeometry width="160" relative="1" as="geometry">
            <mxPoint x="800" y="-278" as="sourcePoint" />
            <mxPoint x="859" y="-280" as="targetPoint" />
            <Array as="points">
              <mxPoint x="800" y="-240" />
              <mxPoint x="890" y="-240" />
            </Array>
          </mxGeometry>
        </mxCell>
        <mxCell id="sruIdUaYwwlshyvs9AWF-52" value="add Post" style="edgeLabel;html=1;align=center;verticalAlign=middle;resizable=0;points=[];" parent="sruIdUaYwwlshyvs9AWF-51" vertex="1" connectable="0">
          <mxGeometry x="0.0631" y="-1" relative="1" as="geometry">
            <mxPoint y="9" as="offset" />
          </mxGeometry>
        </mxCell>
        <mxCell id="fjCumSdCN3k3RxDCoMvJ-1" value="" style="endArrow=open;endFill=1;endSize=12;html=1;rounded=0;exitX=1;exitY=0;exitDx=0;exitDy=0;entryX=1;entryY=1;entryDx=0;entryDy=0;" edge="1" parent="1" source="sruIdUaYwwlshyvs9AWF-35" target="sruIdUaYwwlshyvs9AWF-35">
          <mxGeometry width="160" relative="1" as="geometry">
            <mxPoint x="930" y="-104" as="sourcePoint" />
            <mxPoint x="1020" y="-100" as="targetPoint" />
            <Array as="points">
              <mxPoint x="930" y="-160" />
              <mxPoint x="980" y="-160" />
              <mxPoint x="1020" y="-160" />
              <mxPoint x="1020" y="-100" />
            </Array>
          </mxGeometry>
        </mxCell>
        <mxCell id="fjCumSdCN3k3RxDCoMvJ-2" value="Promote/Demote Member" style="edgeLabel;html=1;align=center;verticalAlign=middle;resizable=0;points=[];" vertex="1" connectable="0" parent="fjCumSdCN3k3RxDCoMvJ-1">
          <mxGeometry x="0.0631" y="-1" relative="1" as="geometry">
            <mxPoint y="9" as="offset" />
          </mxGeometry>
        </mxCell>
        <mxCell id="fjCumSdCN3k3RxDCoMvJ-3" value="" style="endArrow=open;endFill=1;endSize=12;html=1;rounded=0;exitX=1;exitY=1;exitDx=0;exitDy=0;entryX=0;entryY=1;entryDx=0;entryDy=0;" edge="1" parent="1" source="sruIdUaYwwlshyvs9AWF-35" target="sruIdUaYwwlshyvs9AWF-35">
          <mxGeometry width="160" relative="1" as="geometry">
            <mxPoint x="780" y="-80" as="sourcePoint" />
            <mxPoint x="780" y="-20" as="targetPoint" />
            <Array as="points">
              <mxPoint x="900" y="-90" />
              <mxPoint x="900" y="-60" />
              <mxPoint x="900" y="-40" />
              <mxPoint x="900" />
              <mxPoint x="840" />
              <mxPoint x="780" />
            </Array>
          </mxGeometry>
        </mxCell>
        <mxCell id="fjCumSdCN3k3RxDCoMvJ-4" value="Delete/Leave group" style="edgeLabel;html=1;align=center;verticalAlign=middle;resizable=0;points=[];" vertex="1" connectable="0" parent="fjCumSdCN3k3RxDCoMvJ-3">
          <mxGeometry x="0.0631" y="-1" relative="1" as="geometry">
            <mxPoint x="26" y="-19" as="offset" />
          </mxGeometry>
        </mxCell>
      </root>
    </mxGraphModel>
  </diagram>
</mxfile>
